<mxfile host="app.diagrams.net" agent="Mozilla/5.0 (Windows NT 10.0; Win64; x64) AppleWebKit/537.36 (KHTML, like Gecko) Chrome/131.0.0.0 Safari/537.36" version="26.0.3">
  <diagram name="Page-1" id="efa7a0a1-bf9b-a30e-e6df-94a7791c09e9">
    <mxGraphModel dx="1500" dy="794" grid="0" gridSize="10" guides="1" tooltips="1" connect="1" arrows="1" fold="1" page="1" pageScale="1" pageWidth="1100" pageHeight="850" background="light-dark(#F1F1F1,#121212)" math="0" shadow="0">
      <root>
        <mxCell id="0" />
        <mxCell id="1" parent="0" />
        <mxCell id="19" value="&lt;p style=&quot;margin: 4px 0px 0px; text-decoration: underline;&quot;&gt;&lt;strong&gt;Score&lt;/strong&gt;&lt;/p&gt;&lt;br&gt;&lt;p style=&quot;margin: 0px; margin-left: 8px;&quot;&gt;ChunkId (FK)&lt;br&gt;KeywordId (FK)&lt;/p&gt;&lt;p style=&quot;margin: 0px; margin-left: 8px;&quot;&gt;Score&lt;/p&gt;&lt;p style=&quot;margin: 0px; margin-left: 8px;&quot;&gt;ScoreDate&lt;/p&gt;&lt;p style=&quot;margin: 0px; margin-left: 8px;&quot;&gt;&lt;br&gt;&lt;/p&gt;" style="verticalAlign=top;align=left;overflow=fill;fontSize=12;fontFamily=Helvetica;html=1;strokeColor=#003366;shadow=1;fillColor=#D4E1F5;fontColor=#003366" parent="1" vertex="1">
          <mxGeometry x="590" y="250" width="160" height="171.18" as="geometry" />
        </mxCell>
        <mxCell id="8QGvBFQ-xydKSeHAjjvQ-148" value="" style="edgeStyle=orthogonalEdgeStyle;rounded=0;orthogonalLoop=1;jettySize=auto;html=1;" edge="1" parent="1" source="20" target="8QGvBFQ-xydKSeHAjjvQ-147">
          <mxGeometry relative="1" as="geometry" />
        </mxCell>
        <mxCell id="8QGvBFQ-xydKSeHAjjvQ-150" value="" style="edgeStyle=orthogonalEdgeStyle;rounded=0;orthogonalLoop=1;jettySize=auto;html=1;" edge="1" parent="1" source="20" target="8QGvBFQ-xydKSeHAjjvQ-149">
          <mxGeometry relative="1" as="geometry" />
        </mxCell>
        <mxCell id="20" value="&lt;p style=&quot;margin: 4px 0px 0px; text-decoration: underline;&quot;&gt;&lt;strong&gt;Chunk&lt;/strong&gt;&lt;/p&gt;&lt;hr&gt;&lt;p style=&quot;margin: 0px; margin-left: 8px;&quot;&gt;&lt;span style=&quot;background-color: transparent; color: light-dark(rgb(0, 51, 102), rgb(161, 205, 249));&quot;&gt;ChunkId (PK)&lt;/span&gt;&lt;/p&gt;&lt;p style=&quot;margin: 0px 0px 0px 8px;&quot;&gt;DocId (FK)&lt;/p&gt;&lt;p style=&quot;margin: 0px; margin-left: 8px;&quot;&gt;Name&lt;/p&gt;&lt;p style=&quot;margin: 0px; margin-left: 8px;&quot;&gt;Description&lt;/p&gt;&lt;p style=&quot;margin: 0px; margin-left: 8px;&quot;&gt;CreatedDate&lt;/p&gt;&lt;p style=&quot;margin: 0px; margin-left: 8px;&quot;&gt;ChunkSize&lt;/p&gt;" style="verticalAlign=top;align=left;overflow=fill;fontSize=12;fontFamily=Helvetica;html=1;strokeColor=#003366;shadow=1;fillColor=#D4E1F5;fontColor=#003366" parent="1" vertex="1">
          <mxGeometry x="590" y="551.1800000000001" width="160" height="160" as="geometry" />
        </mxCell>
        <mxCell id="21" value="&lt;p style=&quot;margin: 4px 0px 0px; text-decoration: underline;&quot;&gt;&lt;strong&gt;Document&lt;/strong&gt;&lt;/p&gt;&lt;hr&gt;&lt;p style=&quot;margin: 0px; margin-left: 8px;&quot;&gt;DocId (PK)&lt;/p&gt;&lt;p style=&quot;margin: 0px; margin-left: 8px;&quot;&gt;CorpusId (FK)&lt;/p&gt;&lt;p style=&quot;margin: 0px; margin-left: 8px;&quot;&gt;&lt;span style=&quot;background-color: transparent; color: light-dark(rgb(0, 51, 102), rgb(161, 205, 249));&quot;&gt;DocSize&lt;/span&gt;&lt;/p&gt;&lt;p style=&quot;margin: 0px; margin-left: 8px;&quot;&gt;&lt;span style=&quot;background-color: transparent; color: light-dark(rgb(0, 51, 102), rgb(161, 205, 249));&quot;&gt;SizeUnits&lt;/span&gt;&lt;/p&gt;&lt;p style=&quot;margin: 0px 0px 0px 8px;&quot;&gt;NumChunks&lt;/p&gt;&lt;p style=&quot;margin: 0px 0px 0px 8px;&quot;&gt;&lt;br&gt;&lt;/p&gt;&lt;div&gt;&lt;br&gt;&lt;/div&gt;" style="verticalAlign=top;align=left;overflow=fill;fontSize=12;fontFamily=Helvetica;html=1;strokeColor=#003366;shadow=1;fillColor=#D4E1F5;fontColor=#003366" parent="1" vertex="1">
          <mxGeometry x="350" y="551.1800000000001" width="160" height="160" as="geometry" />
        </mxCell>
        <mxCell id="23" value="&lt;p style=&quot;margin: 4px 0px 0px; text-decoration: underline;&quot;&gt;&lt;strong&gt;Keyword&lt;/strong&gt;&lt;/p&gt;&lt;hr&gt;&lt;p style=&quot;margin: 0px; margin-left: 8px;&quot;&gt;KeywordID&lt;/p&gt;&lt;p style=&quot;margin: 0px; margin-left: 8px;&quot;&gt;Keyword&lt;/p&gt;&lt;p style=&quot;margin: 0px; margin-left: 8px;&quot;&gt;ShortDesc&lt;br&gt;LongText&lt;/p&gt;" style="verticalAlign=top;align=left;overflow=fill;fontSize=12;fontFamily=Helvetica;html=1;strokeColor=#003366;shadow=1;fillColor=#D4E1F5;fontColor=#003366" parent="1" vertex="1">
          <mxGeometry x="830" y="251.18" width="160" height="170" as="geometry" />
        </mxCell>
        <mxCell id="24" value="&lt;p style=&quot;margin: 0px; margin-top: 4px; text-align: center; text-decoration: underline;&quot;&gt;&lt;strong&gt;DocumentReport&lt;/strong&gt;&lt;/p&gt;&lt;hr&gt;&lt;p style=&quot;margin: 0px; margin-left: 8px;&quot;&gt;ReportId (PK)&lt;/p&gt;&lt;p style=&quot;margin: 0px 0px 0px 8px;&quot;&gt;&lt;span style=&quot;background-color: transparent; color: light-dark(rgb(0, 51, 102), rgb(161, 205, 249));&quot;&gt;DocId (FK)&lt;/span&gt;&lt;/p&gt;&lt;p style=&quot;margin: 0px 0px 0px 8px;&quot;&gt;Type&lt;/p&gt;&lt;p style=&quot;margin: 0px; margin-left: 8px;&quot;&gt;Title&lt;/p&gt;&lt;p style=&quot;margin: 0px; margin-left: 8px;&quot;&gt;Desc&lt;/p&gt;&lt;p style=&quot;margin: 0px; margin-left: 8px;&quot;&gt;&lt;span style=&quot;background-color: transparent; color: light-dark(rgb(0, 51, 102), rgb(161, 205, 249));&quot;&gt;Summary&lt;/span&gt;&lt;/p&gt;&lt;p style=&quot;margin: 0px; margin-left: 8px;&quot;&gt;Report&lt;/p&gt;&lt;p style=&quot;margin: 0px; margin-left: 8px;&quot;&gt;Review&lt;/p&gt;&lt;p style=&quot;margin: 0px; margin-left: 8px;&quot;&gt;Reviewer&lt;/p&gt;" style="verticalAlign=top;align=left;overflow=fill;fontSize=12;fontFamily=Helvetica;html=1;strokeColor=#003366;shadow=1;fillColor=#D4E1F5;fontColor=#003366" parent="1" vertex="1">
          <mxGeometry x="111" y="551.1800000000001" width="160" height="170" as="geometry" />
        </mxCell>
        <mxCell id="25" value="&lt;p style=&quot;margin: 4px 0px 0px; text-decoration: underline;&quot;&gt;&lt;strong&gt;Corpus&lt;/strong&gt;&lt;/p&gt;&lt;hr&gt;&lt;p style=&quot;margin: 0px; margin-left: 8px;&quot;&gt;CorpusId (PK)&lt;/p&gt;&lt;p style=&quot;margin: 0px; margin-left: 8px;&quot;&gt;CorpusName&lt;/p&gt;&lt;p style=&quot;margin: 0px; margin-left: 8px;&quot;&gt;CorpusType&lt;/p&gt;&lt;p style=&quot;margin: 0px; margin-left: 8px;&quot;&gt;CorpusPath&lt;/p&gt;&lt;p style=&quot;margin: 0px; margin-left: 8px;&quot;&gt;Username&lt;/p&gt;&lt;p style=&quot;margin: 0px; margin-left: 8px;&quot;&gt;IngestDate&lt;/p&gt;" style="verticalAlign=top;align=left;overflow=fill;fontSize=12;fontFamily=Helvetica;html=1;strokeColor=#003366;shadow=1;fillColor=#D4E1F5;fontColor=#003366" parent="1" vertex="1">
          <mxGeometry x="350" y="252.82" width="160" height="168.36" as="geometry" />
        </mxCell>
        <mxCell id="51" value="" style="endArrow=ERzeroToMany;endSize=8;startArrow=none;startSize=8;startFill=0;edgeStyle=orthogonalEdgeStyle;endFill=0;entryX=0.5;entryY=0.007;entryDx=0;entryDy=0;entryPerimeter=0;" parent="1" source="23" target="8QGvBFQ-xydKSeHAjjvQ-127" edge="1">
          <mxGeometry x="389.35999999999996" y="350" as="geometry">
            <mxPoint x="699.3599999999999" y="521.1800000000001" as="sourcePoint" />
            <mxPoint x="910" y="481.18" as="targetPoint" />
          </mxGeometry>
        </mxCell>
        <mxCell id="52" value="1" style="resizable=0;align=left;verticalAlign=top;labelBackgroundColor=#ffffff;fontSize=12;strokeColor=#003366;shadow=1;fillColor=#D4E1F5;fontColor=#003366" parent="51" connectable="0" vertex="1">
          <mxGeometry x="-1" relative="1" as="geometry">
            <mxPoint x="8.91999999999958" as="offset" />
          </mxGeometry>
        </mxCell>
        <mxCell id="53" value="0.n" style="resizable=0;align=right;verticalAlign=top;labelBackgroundColor=#ffffff;fontSize=12;strokeColor=#003366;shadow=1;fillColor=#D4E1F5;fontColor=#003366" parent="51" connectable="0" vertex="1">
          <mxGeometry x="1" relative="1" as="geometry">
            <mxPoint x="-10" y="-30" as="offset" />
          </mxGeometry>
        </mxCell>
        <mxCell id="90" value="" style="endArrow=open;endSize=8;startArrow=ERzeroToMany;startSize=8;startFill=0;edgeStyle=orthogonalEdgeStyle;entryX=0.5;entryY=1;entryDx=0;entryDy=0;exitX=0.5;exitY=0;exitDx=0;exitDy=0;" parent="1" source="21" target="25" edge="1">
          <mxGeometry x="620" y="340" as="geometry">
            <mxPoint x="500" y="411.18" as="sourcePoint" />
            <mxPoint x="1090" y="511.18" as="targetPoint" />
          </mxGeometry>
        </mxCell>
        <mxCell id="91" value="0..n" style="resizable=0;align=left;verticalAlign=top;labelBackgroundColor=#ffffff;fontSize=10;strokeColor=#003366;shadow=1;fillColor=#D4E1F5;fontColor=#003366" parent="90" connectable="0" vertex="1">
          <mxGeometry x="-1" relative="1" as="geometry">
            <mxPoint x="10" y="-29" as="offset" />
          </mxGeometry>
        </mxCell>
        <mxCell id="92" value="1" style="resizable=0;align=right;verticalAlign=top;labelBackgroundColor=#ffffff;fontSize=10;strokeColor=#003366;shadow=1;fillColor=#D4E1F5;fontColor=#003366" parent="90" connectable="0" vertex="1">
          <mxGeometry x="1" relative="1" as="geometry">
            <mxPoint x="20" y="10" as="offset" />
          </mxGeometry>
        </mxCell>
        <mxCell id="8QGvBFQ-xydKSeHAjjvQ-121" value="" style="endArrow=open;endSize=8;startArrow=ERmany;startSize=8;startFill=0;edgeStyle=orthogonalEdgeStyle;entryX=1;entryY=0.5;entryDx=0;entryDy=0;" edge="1" parent="1" source="20" target="21">
          <mxGeometry x="620" y="340" as="geometry">
            <mxPoint x="440" y="552.1800000000001" as="sourcePoint" />
            <mxPoint x="440" y="440.18" as="targetPoint" />
          </mxGeometry>
        </mxCell>
        <mxCell id="8QGvBFQ-xydKSeHAjjvQ-122" value="1..n" style="resizable=0;align=left;verticalAlign=top;labelBackgroundColor=#ffffff;fontSize=12;strokeColor=#003366;shadow=1;fillColor=#D4E1F5;fontColor=#003366" connectable="0" vertex="1" parent="8QGvBFQ-xydKSeHAjjvQ-121">
          <mxGeometry x="-1" relative="1" as="geometry">
            <mxPoint x="-30" y="-29" as="offset" />
          </mxGeometry>
        </mxCell>
        <mxCell id="8QGvBFQ-xydKSeHAjjvQ-123" value="1" style="resizable=0;align=right;verticalAlign=top;labelBackgroundColor=#ffffff;fontSize=12;strokeColor=#003366;shadow=1;fillColor=#D4E1F5;fontColor=#003366" connectable="0" vertex="1" parent="8QGvBFQ-xydKSeHAjjvQ-121">
          <mxGeometry x="1" relative="1" as="geometry">
            <mxPoint x="20" y="-24.99999999999981" as="offset" />
          </mxGeometry>
        </mxCell>
        <mxCell id="8QGvBFQ-xydKSeHAjjvQ-124" value="" style="endArrow=ERzeroToMany;endSize=8;startArrow=none;startSize=8;startFill=0;edgeStyle=orthogonalEdgeStyle;entryX=0.5;entryY=1;entryDx=0;entryDy=0;exitX=0.5;exitY=0;exitDx=0;exitDy=0;endFill=0;" edge="1" parent="1" source="20" target="19">
          <mxGeometry x="369.35999999999996" y="360" as="geometry">
            <mxPoint x="710" y="481.18" as="sourcePoint" />
            <mxPoint x="790" y="813.1800000000001" as="targetPoint" />
            <Array as="points" />
          </mxGeometry>
        </mxCell>
        <mxCell id="8QGvBFQ-xydKSeHAjjvQ-125" value="1" style="resizable=0;align=left;verticalAlign=top;labelBackgroundColor=#ffffff;fontSize=12;strokeColor=#003366;shadow=1;fillColor=#D4E1F5;fontColor=#003366" connectable="0" vertex="1" parent="8QGvBFQ-xydKSeHAjjvQ-124">
          <mxGeometry x="-1" relative="1" as="geometry">
            <mxPoint x="-20" y="-29" as="offset" />
          </mxGeometry>
        </mxCell>
        <mxCell id="8QGvBFQ-xydKSeHAjjvQ-126" value="0..n" style="resizable=0;align=right;verticalAlign=top;labelBackgroundColor=#ffffff;fontSize=12;strokeColor=#003366;shadow=1;fillColor=#D4E1F5;fontColor=#003366" connectable="0" vertex="1" parent="8QGvBFQ-xydKSeHAjjvQ-124">
          <mxGeometry x="1" relative="1" as="geometry">
            <mxPoint x="30" y="1" as="offset" />
          </mxGeometry>
        </mxCell>
        <mxCell id="8QGvBFQ-xydKSeHAjjvQ-127" value="&lt;p style=&quot;margin: 4px 0px 0px; text-decoration: underline;&quot;&gt;&lt;strong&gt;KeywordReport&lt;/strong&gt;&lt;/p&gt;&lt;hr&gt;&lt;p style=&quot;margin: 0px; margin-left: 8px;&quot;&gt;ReportId (PK)&lt;/p&gt;&lt;p style=&quot;margin: 0px; margin-left: 8px;&quot;&gt;KeywordId (FK)&lt;/p&gt;&lt;p style=&quot;margin: 0px; margin-left: 8px;&quot;&gt;Title&lt;/p&gt;&lt;p style=&quot;margin: 0px; margin-left: 8px;&quot;&gt;Type&lt;/p&gt;&lt;p style=&quot;margin: 0px; margin-left: 8px;&quot;&gt;Summary&lt;/p&gt;&lt;p style=&quot;margin: 0px; margin-left: 8px;&quot;&gt;Report&lt;/p&gt;&lt;p style=&quot;margin: 0px; margin-left: 8px;&quot;&gt;Review&lt;/p&gt;&lt;p style=&quot;margin: 0px; margin-left: 8px;&quot;&gt;Reviewer&lt;/p&gt;" style="verticalAlign=top;align=left;overflow=fill;fontSize=12;fontFamily=Helvetica;html=1;strokeColor=#003366;shadow=1;fillColor=#D4E1F5;fontColor=#003366" vertex="1" parent="1">
          <mxGeometry x="830.0000000000002" y="551.1800000000006" width="160" height="150" as="geometry" />
        </mxCell>
        <mxCell id="8QGvBFQ-xydKSeHAjjvQ-129" value="" style="edgeStyle=orthogonalEdgeStyle;rounded=0;orthogonalLoop=1;jettySize=auto;html=1;exitX=0;exitY=0.5;exitDx=0;exitDy=0;endArrow=ERzeroToMany;endFill=0;endSize=8;startSize=8;" edge="1" parent="1" source="25" target="8QGvBFQ-xydKSeHAjjvQ-128">
          <mxGeometry relative="1" as="geometry">
            <mxPoint x="260" y="316.18" as="targetPoint" />
          </mxGeometry>
        </mxCell>
        <mxCell id="8QGvBFQ-xydKSeHAjjvQ-128" value="&lt;p style=&quot;margin: 0px; margin-top: 4px; text-align: center; text-decoration: underline;&quot;&gt;&lt;strong&gt;CorpusReport&lt;/strong&gt;&lt;/p&gt;&lt;hr&gt;&lt;p style=&quot;margin: 0px; margin-left: 8px;&quot;&gt;ReportId&lt;/p&gt;&lt;p style=&quot;margin: 0px; margin-left: 8px;&quot;&gt;CorpusId (FK)&lt;/p&gt;&lt;p style=&quot;margin: 0px; margin-left: 8px;&quot;&gt;Type&lt;/p&gt;&lt;p style=&quot;margin: 0px; margin-left: 8px;&quot;&gt;&lt;span style=&quot;background-color: transparent; color: light-dark(rgb(0, 51, 102), rgb(161, 205, 249));&quot;&gt;Title&lt;/span&gt;&lt;/p&gt;&lt;p style=&quot;margin: 0px; margin-left: 8px;&quot;&gt;Desc&lt;/p&gt;&lt;p style=&quot;margin: 0px; margin-left: 8px;&quot;&gt;Summary&lt;/p&gt;&lt;p style=&quot;margin: 0px; margin-left: 8px;&quot;&gt;Report&lt;/p&gt;&lt;p style=&quot;margin: 0px; margin-left: 8px;&quot;&gt;Review&lt;/p&gt;&lt;p style=&quot;margin: 0px; margin-left: 8px;&quot;&gt;Reviewer&lt;/p&gt;" style="verticalAlign=top;align=left;overflow=fill;fontSize=12;fontFamily=Helvetica;html=1;strokeColor=#003366;shadow=1;fillColor=#D4E1F5;fontColor=#003366" vertex="1" parent="1">
          <mxGeometry x="111" y="251.18" width="160" height="170" as="geometry" />
        </mxCell>
        <mxCell id="8QGvBFQ-xydKSeHAjjvQ-130" value="" style="edgeStyle=orthogonalEdgeStyle;rounded=0;orthogonalLoop=1;jettySize=auto;html=1;exitX=0;exitY=0.25;exitDx=0;exitDy=0;entryX=1;entryY=0.5;entryDx=0;entryDy=0;endArrow=ERzeroToMany;endFill=0;endSize=8;startSize=8;" edge="1" parent="1" source="21" target="24">
          <mxGeometry relative="1" as="geometry">
            <mxPoint x="390" y="378.18" as="sourcePoint" />
            <mxPoint x="289" y="377.18" as="targetPoint" />
          </mxGeometry>
        </mxCell>
        <mxCell id="8QGvBFQ-xydKSeHAjjvQ-136" value="1" style="text;html=1;align=center;verticalAlign=middle;whiteSpace=wrap;rounded=0;" vertex="1" parent="1">
          <mxGeometry x="330" y="567.1800000000001" width="10" height="20" as="geometry" />
        </mxCell>
        <mxCell id="8QGvBFQ-xydKSeHAjjvQ-137" value="1" style="text;html=1;align=center;verticalAlign=middle;whiteSpace=wrap;rounded=0;" vertex="1" parent="1">
          <mxGeometry x="330" y="301.18" width="10" height="20" as="geometry" />
        </mxCell>
        <mxCell id="8QGvBFQ-xydKSeHAjjvQ-140" value="0..n" style="text;html=1;align=center;verticalAlign=middle;whiteSpace=wrap;rounded=0;" vertex="1" parent="1">
          <mxGeometry x="271" y="341.18" width="40" height="20" as="geometry" />
        </mxCell>
        <mxCell id="8QGvBFQ-xydKSeHAjjvQ-141" value="0..n" style="text;html=1;align=center;verticalAlign=middle;whiteSpace=wrap;rounded=0;" vertex="1" parent="1">
          <mxGeometry x="271" y="642.1800000000001" width="40" height="20" as="geometry" />
        </mxCell>
        <mxCell id="8QGvBFQ-xydKSeHAjjvQ-143" value="" style="endArrow=ERzeroToMany;endSize=8;startArrow=none;startSize=8;startFill=0;edgeStyle=orthogonalEdgeStyle;exitX=1;exitY=0.5;exitDx=0;exitDy=0;endFill=0;" edge="1" parent="1" source="19" target="23">
          <mxGeometry x="369.35999999999996" y="360" as="geometry">
            <mxPoint x="680" y="500.18" as="sourcePoint" />
            <mxPoint x="680" y="390.18" as="targetPoint" />
            <Array as="points" />
          </mxGeometry>
        </mxCell>
        <mxCell id="8QGvBFQ-xydKSeHAjjvQ-144" value="1" style="resizable=0;align=left;verticalAlign=top;labelBackgroundColor=#ffffff;fontSize=12;strokeColor=#003366;shadow=1;fillColor=#D4E1F5;fontColor=#003366" connectable="0" vertex="1" parent="8QGvBFQ-xydKSeHAjjvQ-143">
          <mxGeometry x="-1" relative="1" as="geometry">
            <mxPoint x="10" y="-29" as="offset" />
          </mxGeometry>
        </mxCell>
        <mxCell id="8QGvBFQ-xydKSeHAjjvQ-145" value="0..n" style="resizable=0;align=right;verticalAlign=top;labelBackgroundColor=#ffffff;fontSize=12;strokeColor=#003366;shadow=1;fillColor=#D4E1F5;fontColor=#003366" connectable="0" vertex="1" parent="8QGvBFQ-xydKSeHAjjvQ-143">
          <mxGeometry x="1" relative="1" as="geometry">
            <mxPoint x="-10" y="5" as="offset" />
          </mxGeometry>
        </mxCell>
        <mxCell id="8QGvBFQ-xydKSeHAjjvQ-146" value="ScoreKeywords ERD" style="text;html=1;align=center;verticalAlign=middle;whiteSpace=wrap;rounded=0;fontSize=33;fontStyle=1" vertex="1" parent="1">
          <mxGeometry x="390" y="140" width="380" height="50" as="geometry" />
        </mxCell>
        <mxCell id="8QGvBFQ-xydKSeHAjjvQ-147" value="&lt;p style=&quot;margin: 4px 0px 0px; text-decoration: underline;&quot;&gt;&lt;strong&gt;Chunk&lt;/strong&gt;&lt;/p&gt;&lt;hr&gt;&lt;p style=&quot;margin: 0px; margin-left: 8px;&quot;&gt;DocId (FK)&lt;/p&gt;&lt;p style=&quot;margin: 0px; margin-left: 8px;&quot;&gt;ChunkId (PK)&lt;/p&gt;&lt;p style=&quot;margin: 0px; margin-left: 8px;&quot;&gt;Name&lt;/p&gt;&lt;p style=&quot;margin: 0px; margin-left: 8px;&quot;&gt;Description&lt;/p&gt;&lt;p style=&quot;margin: 0px; margin-left: 8px;&quot;&gt;CreatedDate&lt;/p&gt;&lt;p style=&quot;margin: 0px; margin-left: 8px;&quot;&gt;ChunkSize&lt;/p&gt;" style="verticalAlign=top;align=left;overflow=fill;fontSize=12;fontFamily=Helvetica;html=1;strokeColor=#003366;shadow=1;fillColor=#D4E1F5;fontColor=#003366" vertex="1" parent="1">
          <mxGeometry x="350" y="551.1800000000001" width="160" height="160" as="geometry" />
        </mxCell>
        <mxCell id="8QGvBFQ-xydKSeHAjjvQ-149" value="&lt;p style=&quot;margin: 4px 0px 0px; text-decoration: underline;&quot;&gt;&lt;strong&gt;Document&lt;/strong&gt;&lt;/p&gt;&lt;hr&gt;&lt;p style=&quot;margin: 0px; margin-left: 8px;&quot;&gt;DocId (PK)&lt;/p&gt;&lt;p style=&quot;margin: 0px; margin-left: 8px;&quot;&gt;CorpusId (FK)&lt;/p&gt;&lt;p style=&quot;margin: 0px; margin-left: 8px;&quot;&gt;Name&lt;/p&gt;&lt;p style=&quot;margin: 0px; margin-left: 8px;&quot;&gt;Description&lt;/p&gt;&lt;p style=&quot;margin: 0px; margin-left: 8px;&quot;&gt;CreatedDate&lt;/p&gt;&lt;p style=&quot;margin: 0px; margin-left: 8px;&quot;&gt;&lt;br&gt;&lt;/p&gt;" style="verticalAlign=top;align=left;overflow=fill;fontSize=12;fontFamily=Helvetica;html=1;strokeColor=#003366;shadow=1;fillColor=#D4E1F5;fontColor=#003366" vertex="1" parent="1">
          <mxGeometry x="350" y="551.1800000000001" width="160" height="160" as="geometry" />
        </mxCell>
      </root>
    </mxGraphModel>
  </diagram>
</mxfile>
